<svg width="51" height="40" viewBox="0 0 51 40" fill="none" xmlns="http://www.w3.org/2000/svg">
<path d="M27.1638 18.8408L25.222 23.0056L23.6824 19.7036L23.2802 18.8408L25.222 14.6761L27.1638 18.8408Z" fill="#FE0000"/>
<path d="M27.1638 18.8408L25.222 23.0056L23.6824 19.7036L23.2802 18.8408L25.222 14.6761L27.1638 18.8408Z" fill="#FE0000"/>
<path d="M29.7155 26.7184H20.7264V30.2387H29.7155V26.7184Z" fill="#FE0000"/>
<path d="M36.7561 39.4094H32.8638L31.2226 35.8891H31.2291L28.5953 30.2387L26.9519 26.7184L25.222 23.0056V23.0034L24.5149 21.4854H24.5127L23.2802 18.8408L25.222 14.6761L26.4567 17.3207L27.1638 18.8408L36.7561 39.4094Z" fill="#FE0000"/>
<path d="M27.1638 18.8408L26.3767 20.5253L25.222 23.0034V23.0056L24.4349 24.6901L23.4899 26.7184L21.8487 30.2387H21.8076L17.5304 39.4094H13.6879L23.2802 18.8408L24.4349 16.3606L25.222 14.6761L27.1444 18.7954L27.1638 18.8408Z" fill="#FE0000"/>
<path d="M27.1638 18.8408L26.487 20.2896L25.222 23.0056L23.2802 18.8408L23.2759 18.83L18.3781 8.3295L3.87499 39.4094H0L10.8595 16.1249L18.3781 0L25.222 14.6761L27.1638 18.8408Z" fill="#FE0000"/>
<path d="M50.444 39.4094H46.5625L32.0637 8.3295L27.166 18.8343L27.1638 18.8408L25.222 23.0056L23.2802 18.8408L25.222 14.6761L32.0637 0L39.1088 15.1042L50.444 39.4094Z" fill="#FE0000"/>
</svg>
