<svg width="415" height="245" viewBox="0 0 415 245" fill="none" xmlns="http://www.w3.org/2000/svg">
<path d="M2.92827 236H1.14702L11.1193 208.364H13.0625L23.0348 236H21.2536L12.1584 210.536H12.0234L2.92827 236ZM5.4517 225.596H18.7301V227.161H5.4517V225.596ZM29.5196 208.364H31.3549L42.0019 233.571H42.1908L52.8378 208.364H54.673V236H53.0537V212.371H52.8918L42.8925 236H41.3002L31.3009 212.371H31.1389V236H29.5196V208.364ZM95.3701 217C95.1632 216.064 94.8124 215.16 94.3176 214.288C93.8228 213.406 93.1886 212.614 92.4149 211.913C91.6502 211.202 90.7506 210.64 89.716 210.226C88.6905 209.812 87.5389 209.605 86.2615 209.605C84.3093 209.605 82.5775 210.118 81.0662 211.143C79.5638 212.16 78.3853 213.613 77.5307 215.502C76.685 217.382 76.2622 219.609 76.2622 222.182C76.2622 224.728 76.685 226.945 77.5307 228.835C78.3763 230.724 79.5593 232.186 81.0797 233.22C82.609 234.246 84.3858 234.759 86.4099 234.759C88.2182 234.759 89.8195 234.34 91.2139 233.504C92.6173 232.667 93.7103 231.47 94.493 229.914C95.2757 228.358 95.658 226.496 95.64 224.327L96.2338 224.611H86.8417V223.045H97.2863V224.611C97.2863 227.049 96.8185 229.149 95.8829 230.913C94.9563 232.667 93.6699 234.016 92.0236 234.961C90.3862 235.906 88.515 236.378 86.4099 236.378C84.0349 236.378 81.9613 235.789 80.189 234.61C78.4168 233.432 77.0404 231.781 76.0598 229.658C75.0882 227.526 74.6024 225.034 74.6024 222.182C74.6024 220.041 74.8813 218.098 75.439 216.352C75.9968 214.607 76.793 213.114 77.8275 211.872C78.8621 210.622 80.0946 209.664 81.525 208.998C82.9554 208.323 84.5342 207.986 86.2615 207.986C87.8268 207.986 89.2347 208.247 90.4852 208.768C91.7357 209.281 92.8152 209.974 93.7238 210.847C94.6415 211.71 95.3836 212.677 95.9504 213.748C96.5172 214.809 96.8995 215.893 97.0974 217H95.3701ZM112.968 236.432C111.096 236.432 109.468 235.969 108.083 235.042C106.697 234.115 105.627 232.847 104.871 231.237C104.115 229.626 103.737 227.791 103.737 225.731C103.737 223.662 104.115 221.817 104.871 220.198C105.636 218.579 106.684 217.301 108.015 216.366C109.347 215.43 110.867 214.962 112.576 214.962C113.737 214.962 114.834 215.196 115.869 215.664C116.912 216.123 117.83 216.789 118.622 217.661C119.422 218.534 120.048 219.586 120.497 220.819C120.956 222.051 121.186 223.437 121.186 224.975V226.001H104.776V224.503H119.539C119.539 223 119.233 221.647 118.622 220.441C118.01 219.236 117.178 218.277 116.125 217.567C115.073 216.856 113.89 216.501 112.576 216.501C111.2 216.501 109.972 216.888 108.892 217.661C107.822 218.426 106.972 219.46 106.342 220.765C105.721 222.069 105.397 223.527 105.37 225.137V225.812C105.37 227.539 105.672 229.091 106.274 230.467C106.886 231.835 107.759 232.919 108.892 233.719C110.026 234.511 111.384 234.907 112.968 234.907C114.101 234.907 115.068 234.718 115.869 234.34C116.678 233.953 117.34 233.486 117.852 232.937C118.365 232.388 118.752 231.857 119.013 231.344L120.511 231.952C120.196 232.644 119.706 233.337 119.04 234.03C118.383 234.714 117.547 235.285 116.53 235.744C115.522 236.202 114.335 236.432 112.968 236.432ZM128.763 236V208.364H130.396V219.901H130.558C130.882 219.011 131.341 218.192 131.935 217.445C132.528 216.699 133.266 216.1 134.148 215.651C135.029 215.192 136.059 214.962 137.238 214.962C138.902 214.962 140.355 215.426 141.597 216.352C142.838 217.27 143.801 218.538 144.484 220.158C145.168 221.768 145.51 223.612 145.51 225.69C145.51 227.786 145.168 229.644 144.484 231.263C143.801 232.874 142.843 234.138 141.61 235.055C140.378 235.973 138.925 236.432 137.251 236.432C136.073 236.432 135.043 236.207 134.161 235.757C133.28 235.298 132.542 234.696 131.948 233.949C131.354 233.193 130.891 232.37 130.558 231.479H130.369V236H128.763ZM130.383 225.677C130.383 227.44 130.648 229.019 131.179 230.413C131.719 231.799 132.492 232.896 133.5 233.706C134.508 234.507 135.713 234.907 137.116 234.907C138.538 234.907 139.752 234.502 140.76 233.692C141.767 232.874 142.537 231.767 143.067 230.373C143.607 228.978 143.877 227.413 143.877 225.677C143.877 223.941 143.607 222.38 143.067 220.994C142.537 219.609 141.767 218.516 140.76 217.715C139.752 216.906 138.538 216.501 137.116 216.501C135.713 216.501 134.508 216.901 133.5 217.702C132.492 218.493 131.719 219.582 131.179 220.967C130.648 222.344 130.383 223.914 130.383 225.677ZM158.013 236.445C156.817 236.445 155.719 236.207 154.721 235.73C153.731 235.253 152.935 234.556 152.332 233.638C151.738 232.721 151.441 231.605 151.441 230.292C151.441 229.428 151.594 228.668 151.9 228.011C152.206 227.355 152.678 226.788 153.317 226.311C153.956 225.834 154.775 225.443 155.773 225.137C156.772 224.822 157.964 224.579 159.349 224.408C160.402 224.282 161.342 224.161 162.169 224.044C162.997 223.918 163.645 223.725 164.113 223.464C164.589 223.203 164.828 222.807 164.828 222.276V221.413C164.828 219.901 164.351 218.7 163.397 217.81C162.444 216.919 161.13 216.474 159.457 216.474C157.973 216.474 156.722 216.802 155.706 217.459C154.698 218.107 153.992 218.943 153.587 219.969L152.035 219.388C152.431 218.399 153.002 217.576 153.749 216.919C154.505 216.262 155.368 215.772 156.34 215.448C157.32 215.124 158.346 214.962 159.417 214.962C160.343 214.962 161.225 215.093 162.061 215.354C162.907 215.615 163.658 216.01 164.315 216.541C164.981 217.072 165.507 217.751 165.894 218.579C166.281 219.397 166.474 220.378 166.474 221.521V236H164.828V232.262H164.706C164.347 233.036 163.852 233.742 163.222 234.381C162.601 235.01 161.85 235.514 160.968 235.892C160.096 236.261 159.111 236.445 158.013 236.445ZM158.175 234.92C159.471 234.92 160.618 234.606 161.616 233.976C162.624 233.337 163.411 232.464 163.978 231.358C164.544 230.251 164.828 228.996 164.828 227.593V224.543C164.621 224.723 164.32 224.885 163.924 225.029C163.537 225.164 163.096 225.286 162.601 225.393C162.115 225.492 161.603 225.582 161.063 225.663C160.532 225.735 160.015 225.803 159.511 225.866C158 226.046 156.767 226.325 155.814 226.702C154.869 227.071 154.176 227.557 153.736 228.16C153.304 228.763 153.088 229.491 153.088 230.346C153.088 231.758 153.574 232.874 154.545 233.692C155.517 234.511 156.727 234.92 158.175 234.92ZM156.61 211.602C156.268 211.602 155.967 211.472 155.706 211.211C155.445 210.95 155.314 210.649 155.314 210.307C155.314 209.947 155.445 209.641 155.706 209.389C155.967 209.137 156.268 209.011 156.61 209.011C156.97 209.011 157.276 209.137 157.527 209.389C157.779 209.641 157.905 209.947 157.905 210.307C157.905 210.649 157.779 210.95 157.527 211.211C157.276 211.472 156.97 211.602 156.61 211.602ZM162.655 211.602C162.313 211.602 162.012 211.472 161.751 211.211C161.49 210.95 161.36 210.649 161.36 210.307C161.36 209.947 161.49 209.641 161.751 209.389C162.012 209.137 162.313 209.011 162.655 209.011C163.015 209.011 163.321 209.137 163.573 209.389C163.825 209.641 163.951 209.947 163.951 210.307C163.951 210.649 163.825 210.95 163.573 211.211C163.321 211.472 163.015 211.602 162.655 211.602ZM187.985 228.646V215.273H189.631V236H187.985V232.64H187.85C187.364 233.71 186.577 234.583 185.488 235.258C184.409 235.933 183.131 236.27 181.656 236.27C180.298 236.27 179.097 235.973 178.053 235.379C177.01 234.786 176.191 233.944 175.597 232.856C175.003 231.758 174.706 230.454 174.706 228.942V215.273H176.353V228.875C176.353 230.602 176.875 232.001 177.918 233.072C178.971 234.133 180.329 234.664 181.993 234.664C183.073 234.664 184.067 234.421 184.976 233.935C185.884 233.45 186.613 232.757 187.162 231.857C187.711 230.949 187.985 229.878 187.985 228.646ZM204.894 236.432C203.23 236.432 201.777 235.973 200.535 235.055C199.294 234.138 198.331 232.874 197.648 231.263C196.973 229.644 196.636 227.786 196.636 225.69C196.636 223.612 196.977 221.768 197.661 220.158C198.354 218.538 199.321 217.27 200.562 216.352C201.804 215.426 203.252 214.962 204.908 214.962C206.095 214.962 207.125 215.192 207.998 215.651C208.879 216.1 209.617 216.699 210.211 217.445C210.814 218.192 211.272 219.011 211.587 219.901H211.749V208.364H213.382V236H211.79V231.479H211.587C211.254 232.37 210.791 233.193 210.197 233.949C209.604 234.696 208.866 235.298 207.984 235.757C207.103 236.207 206.073 236.432 204.894 236.432ZM205.043 234.907C206.446 234.907 207.647 234.507 208.646 233.706C209.653 232.896 210.422 231.799 210.953 230.413C211.493 229.019 211.763 227.44 211.763 225.677C211.763 223.914 211.493 222.344 210.953 220.967C210.422 219.582 209.653 218.493 208.646 217.702C207.647 216.901 206.446 216.501 205.043 216.501C203.621 216.501 202.402 216.906 201.386 217.715C200.378 218.516 199.604 219.609 199.065 220.994C198.534 222.38 198.268 223.941 198.268 225.677C198.268 227.413 198.534 228.978 199.065 230.373C199.604 231.767 200.378 232.874 201.386 233.692C202.402 234.502 203.621 234.907 205.043 234.907ZM230.203 236.432C228.332 236.432 226.704 235.969 225.319 235.042C223.933 234.115 222.863 232.847 222.107 231.237C221.351 229.626 220.973 227.791 220.973 225.731C220.973 223.662 221.351 221.817 222.107 220.198C222.872 218.579 223.92 217.301 225.251 216.366C226.583 215.43 228.103 214.962 229.812 214.962C230.973 214.962 232.07 215.196 233.105 215.664C234.148 216.123 235.066 216.789 235.858 217.661C236.658 218.534 237.284 219.586 237.733 220.819C238.192 222.051 238.422 223.437 238.422 224.975V226.001H222.012V224.503H236.775C236.775 223 236.469 221.647 235.858 220.441C235.246 219.236 234.414 218.277 233.361 217.567C232.309 216.856 231.126 216.501 229.812 216.501C228.436 216.501 227.208 216.888 226.128 217.661C225.058 218.426 224.208 219.46 223.578 220.765C222.957 222.069 222.633 223.527 222.606 225.137V225.812C222.606 227.539 222.908 229.091 223.51 230.467C224.122 231.835 224.995 232.919 226.128 233.719C227.262 234.511 228.62 234.907 230.203 234.907C231.337 234.907 232.304 234.718 233.105 234.34C233.914 233.953 234.576 233.486 235.088 232.937C235.601 232.388 235.988 231.857 236.249 231.344L237.747 231.952C237.432 232.644 236.942 233.337 236.276 234.03C235.619 234.714 234.783 235.285 233.766 235.744C232.758 236.202 231.571 236.432 230.203 236.432ZM245.419 236V215.273H247.025V218.511H247.173C247.623 217.45 248.383 216.6 249.454 215.961C250.524 215.313 251.743 214.989 253.111 214.989C253.255 214.989 253.399 214.989 253.543 214.989C253.687 214.989 253.822 214.994 253.948 215.003V216.663C253.84 216.654 253.709 216.64 253.556 216.622C253.412 216.595 253.232 216.582 253.016 216.582C251.865 216.582 250.839 216.829 249.94 217.324C249.049 217.819 248.347 218.502 247.835 219.375C247.322 220.239 247.065 221.228 247.065 222.344V236H245.419ZM267.153 236.432C265.281 236.432 263.653 235.969 262.268 235.042C260.882 234.115 259.812 232.847 259.056 231.237C258.3 229.626 257.922 227.791 257.922 225.731C257.922 223.662 258.3 221.817 259.056 220.198C259.821 218.579 260.869 217.301 262.2 216.366C263.532 215.43 265.052 214.962 266.761 214.962C267.922 214.962 269.019 215.196 270.054 215.664C271.097 216.123 272.015 216.789 272.807 217.661C273.607 218.534 274.233 219.586 274.682 220.819C275.141 222.051 275.371 223.437 275.371 224.975V226.001H258.962V224.503H273.724C273.724 223 273.418 221.647 272.807 220.441C272.195 219.236 271.363 218.277 270.31 217.567C269.258 216.856 268.075 216.501 266.761 216.501C265.385 216.501 264.157 216.888 263.077 217.661C262.007 218.426 261.157 219.46 260.527 220.765C259.906 222.069 259.582 223.527 259.555 225.137V225.812C259.555 227.539 259.857 229.091 260.459 230.467C261.071 231.835 261.944 232.919 263.077 233.719C264.211 234.511 265.569 234.907 267.153 234.907C268.286 234.907 269.253 234.718 270.054 234.34C270.863 233.953 271.525 233.486 272.037 232.937C272.55 232.388 272.937 231.857 273.198 231.344L274.696 231.952C274.381 232.644 273.891 233.337 273.225 234.03C272.568 234.714 271.732 235.285 270.715 235.744C269.707 236.202 268.52 236.432 267.153 236.432ZM282.449 236V215.273H284.082V236H282.449ZM283.272 211.602C282.912 211.602 282.598 211.476 282.328 211.224C282.067 210.973 281.936 210.667 281.936 210.307C281.936 209.947 282.067 209.641 282.328 209.389C282.589 209.137 282.903 209.011 283.272 209.011C283.632 209.011 283.943 209.137 284.203 209.389C284.473 209.641 284.608 209.947 284.608 210.307C284.608 210.667 284.478 210.973 284.217 211.224C283.956 211.476 283.641 211.602 283.272 211.602ZM293.954 222.56V236H292.308V215.273H293.913V218.552H294.075C294.561 217.481 295.339 216.622 296.41 215.974C297.48 215.327 298.753 215.003 300.229 215.003C301.623 215.003 302.847 215.3 303.899 215.893C304.961 216.487 305.788 217.333 306.382 218.43C306.985 219.519 307.286 220.819 307.286 222.33V236H305.64V222.398C305.64 220.634 305.114 219.218 304.061 218.147C303.018 217.067 301.637 216.528 299.918 216.528C298.767 216.528 297.741 216.78 296.842 217.283C295.942 217.787 295.236 218.493 294.723 219.402C294.21 220.302 293.954 221.354 293.954 222.56ZM315.539 236V215.273H317.172V236H315.539ZM316.362 211.602C316.002 211.602 315.687 211.476 315.417 211.224C315.157 210.973 315.026 210.667 315.026 210.307C315.026 209.947 315.157 209.641 315.417 209.389C315.678 209.137 315.993 209.011 316.362 209.011C316.722 209.011 317.032 209.137 317.293 209.389C317.563 209.641 317.698 209.947 317.698 210.307C317.698 210.667 317.567 210.973 317.307 211.224C317.046 211.476 316.731 211.602 316.362 211.602ZM332.873 244.205C331.587 244.205 330.431 244.034 329.405 243.692C328.38 243.359 327.507 242.882 326.787 242.261C326.076 241.641 325.532 240.903 325.154 240.048L326.531 239.239C326.837 239.904 327.273 240.498 327.84 241.02C328.407 241.542 329.108 241.951 329.945 242.248C330.791 242.545 331.767 242.693 332.873 242.693C334.87 242.693 336.449 242.176 337.61 241.141C338.779 240.116 339.364 238.541 339.364 236.418V231.263H339.202C338.887 232.163 338.419 232.964 337.799 233.665C337.187 234.358 336.436 234.902 335.545 235.298C334.654 235.694 333.642 235.892 332.509 235.892C330.871 235.892 329.432 235.469 328.191 234.624C326.949 233.778 325.982 232.59 325.289 231.061C324.597 229.523 324.25 227.714 324.25 225.636C324.25 223.558 324.588 221.719 325.262 220.117C325.946 218.507 326.909 217.247 328.15 216.339C329.392 215.421 330.849 214.962 332.522 214.962C333.719 214.962 334.753 215.192 335.626 215.651C336.508 216.1 337.245 216.699 337.839 217.445C338.433 218.192 338.892 219.011 339.215 219.901H339.404V215.273H340.997V236.486C340.997 238.213 340.655 239.648 339.971 240.79C339.296 241.933 338.347 242.788 337.124 243.354C335.909 243.921 334.492 244.205 332.873 244.205ZM332.657 234.367C334.043 234.367 335.235 234.016 336.233 233.315C337.241 232.604 338.014 231.596 338.554 230.292C339.103 228.978 339.377 227.422 339.377 225.623C339.377 223.878 339.112 222.317 338.581 220.94C338.05 219.564 337.281 218.48 336.274 217.688C335.266 216.897 334.061 216.501 332.657 216.501C331.227 216.501 330.008 216.906 329 217.715C327.993 218.516 327.219 219.604 326.679 220.981C326.148 222.357 325.883 223.905 325.883 225.623C325.883 227.35 326.153 228.871 326.693 230.184C327.233 231.488 328.006 232.514 329.014 233.261C330.021 233.998 331.236 234.367 332.657 234.367ZM362.531 228.646V215.273H364.177V236H362.531V232.64H362.396C361.91 233.71 361.123 234.583 360.035 235.258C358.955 235.933 357.678 236.27 356.202 236.27C354.844 236.27 353.643 235.973 352.599 235.379C351.556 234.786 350.737 233.944 350.143 232.856C349.55 231.758 349.253 230.454 349.253 228.942V215.273H350.899V228.875C350.899 230.602 351.421 232.001 352.464 233.072C353.517 234.133 354.875 234.664 356.54 234.664C357.619 234.664 358.613 234.421 359.522 233.935C360.43 233.45 361.159 232.757 361.708 231.857C362.257 230.949 362.531 229.878 362.531 228.646ZM373.975 222.56V236H372.329V215.273H373.935V218.552H374.097C374.582 217.481 375.36 216.622 376.431 215.974C377.502 215.327 378.775 215.003 380.25 215.003C381.644 215.003 382.868 215.3 383.92 215.893C384.982 216.487 385.81 217.333 386.403 218.43C387.006 219.519 387.307 220.819 387.307 222.33V236H385.661V222.398C385.661 220.634 385.135 219.218 384.082 218.147C383.039 217.067 381.658 216.528 379.94 216.528C378.788 216.528 377.762 216.78 376.863 217.283C375.963 217.787 375.257 218.493 374.744 219.402C374.231 220.302 373.975 221.354 373.975 222.56ZM402.955 244.205C401.668 244.205 400.512 244.034 399.487 243.692C398.461 243.359 397.589 242.882 396.869 242.261C396.158 241.641 395.614 240.903 395.236 240.048L396.613 239.239C396.918 239.904 397.355 240.498 397.922 241.02C398.488 241.542 399.19 241.951 400.027 242.248C400.872 242.545 401.848 242.693 402.955 242.693C404.952 242.693 406.531 242.176 407.691 241.141C408.861 240.116 409.446 238.541 409.446 236.418V231.263H409.284C408.969 232.163 408.501 232.964 407.88 233.665C407.269 234.358 406.517 234.902 405.627 235.298C404.736 235.694 403.724 235.892 402.591 235.892C400.953 235.892 399.514 235.469 398.272 234.624C397.031 233.778 396.064 232.59 395.371 231.061C394.678 229.523 394.332 227.714 394.332 225.636C394.332 223.558 394.669 221.719 395.344 220.117C396.028 218.507 396.99 217.247 398.232 216.339C399.473 215.421 400.931 214.962 402.604 214.962C403.801 214.962 404.835 215.192 405.708 215.651C406.589 216.1 407.327 216.699 407.921 217.445C408.515 218.192 408.973 219.011 409.297 219.901H409.486V215.273H411.078V236.486C411.078 238.213 410.737 239.648 410.053 240.79C409.378 241.933 408.429 242.788 407.206 243.354C405.991 243.921 404.574 244.205 402.955 244.205ZM402.739 234.367C404.124 234.367 405.316 234.016 406.315 233.315C407.323 232.604 408.096 231.596 408.636 230.292C409.185 228.978 409.459 227.422 409.459 225.623C409.459 223.878 409.194 222.317 408.663 220.94C408.132 219.564 407.363 218.48 406.355 217.688C405.348 216.897 404.142 216.501 402.739 216.501C401.309 216.501 400.09 216.906 399.082 217.715C398.074 218.516 397.301 219.604 396.761 220.981C396.23 222.357 395.965 223.905 395.965 225.623C395.965 227.35 396.235 228.871 396.775 230.184C397.314 231.488 398.088 232.514 399.096 233.261C400.103 233.998 401.318 234.367 402.739 234.367Z" fill="white"/>
<g clip-path="url(#clip0_66_1248)">
<path d="M241.02 139.638H173.98L181.561 123.38H233.429L241.02 139.638Z" fill="url(#paint0_linear_66_1248)"/>
<path d="M216.469 87.0104L207.5 106.234L200.389 90.985L198.531 87.0104L207.5 67.7769L216.469 87.0104Z" fill="#FE0000"/>
<path d="M216.469 87.0104L207.5 106.234V106.244L200.389 90.985L198.531 87.0104L207.5 67.7769L216.469 87.0104Z" fill="#FE0000"/>
<path d="M216.469 87.0004L207.5 67.7769L213.203 79.9901L216.469 87.0004Z" fill="#FE0000"/>
<path d="M216.469 87.0005V87.0104L212.844 94.7897L207.5 106.234V106.244L203.874 114.023L199.5 123.38L191.919 139.638H191.729L171.973 182H154.224L173.98 139.638L181.561 123.38L198.531 87.0104V87.0005L203.874 75.5562L207.5 67.7769L216.469 87.0005Z" fill="url(#paint1_linear_66_1248)"/>
<path d="M239.112 38.4771L216.479 86.9805L216.469 87.0104L207.5 106.234L198.531 87.0104L207.5 67.7769L230.133 19.2435L239.112 38.4771Z" fill="url(#paint2_linear_66_1248)"/>
<path d="M324 182H306.082L239.112 38.4771L230.133 19.2436L239.112 0L271.643 69.7542L324 182Z" fill="url(#paint3_linear_66_1248)"/>
<path d="M260.776 182H242.808L235.227 165.742H235.257L223.081 139.638L215.5 123.38L207.5 106.244V106.234L198.531 87.0104V87.0005L198.521 86.9805L175.888 38.4771L184.867 19.2435L207.5 67.7769L216.469 87.0005V87.0104L233.429 123.38L241.02 139.638L260.776 182Z" fill="url(#paint4_linear_66_1248)"/>
<path d="M91 182H108.918L175.888 38.4771L184.867 19.2436L175.888 0L143.357 69.7542L91 182Z" fill="url(#paint5_linear_66_1248)"/>
</g>
<defs>
<linearGradient id="paint0_linear_66_1248" x1="208.902" y1="180.352" x2="206.532" y2="111.611" gradientUnits="userSpaceOnUse">
<stop stop-color="#FE0000"/>
<stop offset="1" stop-color="#910E0D"/>
</linearGradient>
<linearGradient id="paint1_linear_66_1248" x1="193.291" y1="117.473" x2="234.964" y2="30.5568" gradientUnits="userSpaceOnUse">
<stop stop-color="#FE0000"/>
<stop offset="1" stop-color="#910E0D"/>
</linearGradient>
<linearGradient id="paint2_linear_66_1248" x1="198.528" y1="62.7389" x2="239.11" y2="62.7389" gradientUnits="userSpaceOnUse">
<stop stop-color="#FE0000"/>
<stop offset="1" stop-color="#910E0D"/>
</linearGradient>
<linearGradient id="paint3_linear_66_1248" x1="246.991" y1="100.298" x2="335.103" y2="76.5864" gradientUnits="userSpaceOnUse">
<stop stop-color="#FE0000"/>
<stop offset="1" stop-color="#910E0D"/>
</linearGradient>
<linearGradient id="paint4_linear_66_1248" x1="218.885" y1="110.59" x2="172.667" y2="19.3241" gradientUnits="userSpaceOnUse">
<stop stop-color="#FE0000"/>
<stop offset="1" stop-color="#910E0D"/>
</linearGradient>
<linearGradient id="paint5_linear_66_1248" x1="159.315" y1="82.8836" x2="60.539" y2="130.304" gradientUnits="userSpaceOnUse">
<stop stop-color="#FE0000"/>
<stop offset="1" stop-color="#910E0D"/>
</linearGradient>
<clipPath id="clip0_66_1248">
<rect width="233" height="182" fill="white" transform="translate(91)"/>
</clipPath>
</defs>
</svg>
