<svg width="608" height="608" viewBox="0 0 608 608" fill="none" xmlns="http://www.w3.org/2000/svg">
<circle cx="304" cy="304" r="304" fill="url(#paint0_linear_2302_2)"/>
<path fill-rule="evenodd" clip-rule="evenodd" d="M29.3628 200.231C42.9674 164.077 63.5597 130.957 89.9642 102.762C116.369 74.5671 148.068 51.8489 183.252 35.9047C218.437 19.9605 256.417 11.1026 295.025 9.83671C333.633 8.57083 372.112 14.9218 408.265 28.527C481.276 56.0089 540.381 111.365 572.58 182.421C604.78 253.478 607.438 334.414 579.969 407.429C552.481 480.435 497.123 539.535 426.069 571.734C355.015 603.933 274.082 606.594 201.066 579.133C128.056 551.651 68.951 496.294 36.7511 425.238C4.55131 354.182 1.89367 273.246 29.3628 200.231ZM37.0191 203.552C23.7655 238.735 17.5727 276.184 18.7944 313.76C20.0161 351.336 28.6283 388.303 44.1392 422.551C59.6501 456.798 81.7558 487.654 109.194 513.357C136.631 539.06 168.864 559.105 204.05 572.349C239.237 585.587 276.686 591.765 314.26 590.53C351.835 589.294 388.798 580.67 423.039 565.149C457.28 549.628 488.128 527.515 513.823 500.072C539.517 472.628 559.555 440.393 572.791 405.206C586.03 370.021 592.209 332.573 590.975 295C589.742 257.427 581.12 220.465 565.602 186.224C550.084 151.984 527.973 121.135 500.533 95.4388C473.093 69.743 440.86 49.7036 405.675 36.4647C334.62 9.75671 255.865 12.3642 186.731 43.7137C117.598 75.0632 63.7459 132.588 37.0191 203.637V203.552Z" fill="white"/>
<path d="M355.003 469.348C446.14 441.345 497.321 344.763 469.318 253.626C441.316 162.488 344.733 111.308 253.596 139.31C162.459 167.313 111.278 263.895 139.281 355.032C167.283 446.17 263.865 497.35 355.003 469.348Z" fill="url(#paint1_radial_2302_2)"/>
<path fill-rule="evenodd" clip-rule="evenodd" d="M313.124 401.827C332.828 412.185 332.828 418.35 375.05 430.82C365.283 411.116 354.024 409.342 358.161 397.436C366.127 374.411 370.406 384.037 372.236 365.628C373.671 350.682 384.311 365.882 399.596 362.532C412.797 359.717 406.83 350.907 406.914 340.745C416.344 333.145 415.19 336.045 411.39 327.797C420.397 319.353 414.007 322.168 413.585 311.443C428.11 307.812 431.853 313.864 420.172 287.489C416.513 279.214 414.373 277.271 418.567 270.178C423.831 261.34 413.979 241.495 411.305 231.362C413.219 227.871 422.818 219.145 413.529 201.525L410.264 208.674C406.267 204.368 408.49 202.172 402.945 194.065L399.173 197.471C385.381 210.673 384.902 202.735 353.602 199.667C342.898 198.233 332.026 198.7 321.484 201.046C325.628 202.31 329.658 203.92 333.532 205.86C339.275 208.838 344.764 212.284 349.942 216.162C352.467 217.862 354.757 219.888 356.754 222.185C357.989 223.623 358.729 225.419 358.865 227.308C358.865 228.406 358.865 229.532 358.865 230.63C358.974 232.011 359.347 233.358 359.963 234.599C360.976 236.879 362.271 238.849 363.2 241.214C368.098 253.683 366.775 260.692 363.988 272.458L364.551 272.627C364.882 272.739 365.202 272.88 365.508 273.049L370.35 275.864L365.283 278.088C364.692 278.341 363.228 279.045 362.975 279.692C362.384 281.24 366.015 287.208 366.775 288.474C369.59 293.457 374.459 298.354 374.6 304.462V305.194L374.262 305.842C373.249 307.697 371.824 309.296 370.096 310.514C368.574 311.49 367.151 312.612 365.846 313.864C365.91 314.84 366.158 315.795 366.578 316.679C367.222 317.536 367.735 318.485 368.098 319.494C368.244 320.202 368.242 320.932 368.092 321.64C367.942 322.347 367.647 323.016 367.225 323.603C366.559 324.591 365.825 325.531 365.03 326.418C365.815 327.572 366.257 328.924 366.307 330.318C366.357 331.713 366.012 333.093 365.311 334.3C364.357 335.483 363.156 336.443 361.793 337.114C361.242 337.423 360.755 337.834 360.357 338.325C358.724 341.365 359.935 345.277 358.809 348.655C358.429 349.804 357.819 350.864 357.015 351.769C356.212 352.674 355.232 353.405 354.136 353.919C352.548 354.73 350.836 355.272 349.07 355.523C345.36 355.861 341.62 355.633 337.979 354.848C335.202 354.284 332.362 354.095 329.535 354.285C327.696 354.549 325.942 355.228 324.406 356.272C322.869 357.316 321.591 358.696 320.668 360.308C316.333 366.754 314.053 377.197 312.702 384.628C311.542 390.218 311.706 396.002 313.181 401.517L313.124 401.827Z" fill="#0B381C"/>
<path fill-rule="evenodd" clip-rule="evenodd" d="M237.405 301.084C241.909 313.666 245.259 319.24 253.562 326.952C278.53 350.259 246.385 368.837 241.712 379.983C268.931 388.005 277.77 387.414 299.613 404.81C303.694 408.075 311.041 415.788 314.785 417.589C312.561 405.795 307.1 400.475 309.943 384.431C319.035 333.511 338.345 359.294 352.841 351.751C359.09 348.514 354.924 342.912 357.908 337.339C359.765 333.792 366.971 334.524 361.623 326.08C369.251 317.635 363.2 321.745 363.002 312.681C366.24 308.628 369.505 308.571 371.813 304.237C371.813 299.142 366.774 293.681 364.354 289.571C359.315 281.127 358.217 277.862 364.128 275.272L363.565 275.019L361.257 274.287C361.257 274.034 360.835 274.287 360.638 274.118C363.678 261.282 365.564 254.724 360.638 242.029C359.625 239.411 358.471 237.779 357.457 235.555C353.517 226.857 360.751 227.111 348.309 218.188C332.237 206.478 319.401 200.314 292.294 199.497C270.142 198.822 261.585 202.65 246.666 214.894C240.671 222.522 235.548 212.952 225.077 213.909C204.472 215.823 179.899 246.167 175.057 270.6C172.243 285.068 169.709 342.856 175.733 355.044C175.871 356.587 175.64 358.14 175.057 359.576C173.481 365.346 173.509 365.205 175.48 369.315C176.859 372.13 183.051 381.813 175.62 385.078C177.562 385.585 178.604 386.148 183.333 379.617C182.573 387.471 180.518 388.259 174.607 392.481C181.393 391.874 187.824 389.18 193.016 384.768C191.679 388.204 189.981 391.488 187.949 394.564C197.97 391.918 196.394 392.087 204.134 382.601C206.386 388.231 203.262 392.931 206.611 400.025C205.204 393.804 210.58 391.918 211.706 381.757C214.278 386.767 217.383 391.486 220.967 395.831C224.035 377.084 245.371 367.007 246.3 347.979C246.582 342.349 244.077 332.751 239.854 320.9C237.04 313.328 232.902 305.475 230.622 298.382C229.817 295.729 229.27 293.005 228.989 290.247C228.004 282.422 233.071 289.008 237.405 301.084Z" fill="#C09952"/>
<path fill-rule="evenodd" clip-rule="evenodd" d="M513.679 206.62L523.475 218.92L537.127 211.349L531.385 225.986L544.783 234.036L529.217 236.344L528.964 251.994L519.168 239.666L505.516 247.266L511.259 232.629L497.86 224.578L513.426 222.27L513.679 206.62Z" fill="#C09952"/>
<path fill-rule="evenodd" clip-rule="evenodd" d="M529.105 357.635L519.197 369.852L505.601 362.139L511.231 376.832L497.748 384.742L513.286 387.219L513.398 402.841L523.307 390.625L536.902 398.337L531.273 383.672L544.755 375.734L529.218 373.286L529.105 357.635Z" fill="#C09952"/>
<path fill-rule="evenodd" clip-rule="evenodd" d="M95.1449 206.169L85.3212 218.442L71.6693 210.813L77.4115 225.479L63.9849 233.501L79.5226 235.837L79.7478 251.487L89.5715 239.187L103.223 246.815L97.5093 232.178L110.936 224.156L95.37 221.791L95.1449 206.169Z" fill="#C09952"/>
<path fill-rule="evenodd" clip-rule="evenodd" d="M79.3822 357.127L89.2622 369.371L102.886 361.687L97.2 376.352L110.683 384.318L95.1452 386.739L94.9763 402.389L85.0963 390.145L71.5007 397.829L77.1585 383.164L63.6755 375.198L79.2133 372.777L79.3822 357.127Z" fill="#C09952"/>
<path fill-rule="evenodd" clip-rule="evenodd" d="M76.4543 272.037L69.2203 291.994L48.4469 288.137L62.1269 304.407L48.3906 320.451L69.3047 316.764L76.3699 336.665L83.604 316.708L104.377 320.536L90.6973 304.294L104.405 288.222L83.5195 291.937L76.4543 272.037Z" fill="#C09952"/>
<path fill-rule="evenodd" clip-rule="evenodd" d="M532.201 272.542L539.407 292.527L560.18 288.727L546.5 304.941L560.152 321.041L539.266 317.269L532.173 337.17L524.967 317.185L504.193 320.985L517.902 304.772L504.222 288.671L525.136 292.415L532.201 272.542Z" fill="#C09952"/>
<path fill-rule="evenodd" clip-rule="evenodd" d="M425.941 150.182L435.455 143.68C437.483 149.507 440.803 154.8 445.167 159.162C446.909 161.092 449.051 162.619 451.444 163.637C452.253 164.033 453.163 164.173 454.054 164.037C454.944 163.901 455.772 163.496 456.426 162.877C456.928 162.35 457.292 161.706 457.483 161.003C457.675 160.301 457.689 159.561 457.524 158.852C457.198 156.867 456.511 154.959 455.497 153.222C454.304 151.049 453.251 148.802 452.344 146.495C451.368 144.08 450.54 141.608 449.867 139.092C449.246 136.559 449.314 133.905 450.064 131.407C450.891 128.522 452.498 125.922 454.709 123.892C456.543 121.886 458.867 120.391 461.452 119.552C464.037 118.713 466.796 118.56 469.459 119.107C475.238 120.468 480.469 123.55 484.461 127.945C489.472 132.84 493.203 138.891 495.327 145.566L485.813 152.068C484.2 146.639 481.247 141.702 477.227 137.713C475.733 136.046 473.846 134.779 471.738 134.025C470.984 133.723 470.157 133.65 469.361 133.816C468.565 133.981 467.835 134.377 467.263 134.954C466.742 135.482 466.362 136.133 466.16 136.846C465.959 137.56 465.941 138.313 466.109 139.036C466.444 141.014 467.12 142.919 468.107 144.665C469.177 146.636 470.218 148.887 471.288 151.364C472.32 153.728 473.176 156.165 473.85 158.655C474.524 161.162 474.524 163.804 473.85 166.311C473.024 169.144 471.449 171.702 469.29 173.714C466.51 176.565 462.788 178.306 458.819 178.612C454.983 178.87 451.151 178.051 447.756 176.247C444.006 174.22 440.605 171.607 437.679 168.507C432.365 163.419 428.341 157.137 425.941 150.182Z" fill="white"/>
<path fill-rule="evenodd" clip-rule="evenodd" d="M412.346 58.5322C390.447 49.1871 367.478 57.4626 358.639 78.236C349.801 99.0093 359.512 121.64 381.411 130.986C403.31 140.331 426.448 131.689 435.371 111C444.294 90.3115 434.189 67.9337 412.346 58.5322ZM353.235 120.993C344.913 118.753 336.449 117.079 327.901 115.983L315.882 92.3663H315.319L300.429 92.1974L300.204 114.463C293.616 114.569 287.038 115.029 280.5 115.842L281.344 37.3648C285.032 37.0552 288.719 36.83 292.407 36.6611L315.854 36.9145C336.261 37.1678 347.83 46.9915 347.633 64.19C347.492 75.9841 342.454 84.4004 333.362 88.8196L353.235 120.993ZM300.485 76.7722L315.375 76.9411C323.82 76.9411 328.887 72.8034 328.971 64.6404C329.055 56.4774 324.158 52.4522 315.657 52.3678L300.795 52.1989L300.485 76.7722ZM97.2554 132.674L153.552 186.297L175.704 162.483C192.593 144.3 192.734 120.852 176.042 104.977C170.157 98.932 162.365 95.1062 153.983 94.147C145.602 93.1878 137.146 95.1541 130.048 99.713C124.418 104.414 119.127 109.34 114.004 114.434L99.648 129.86L97.2554 132.674ZM121.998 129.072L130.977 119.445C139.421 110.297 152.51 110.184 162.503 119.698C172.495 129.212 173.312 141.879 165.121 150.661L155.55 160.935L121.998 129.015V129.072ZM217.138 50.9322C239.995 43.8671 262.007 54.5915 268.621 75.9559C275.236 97.3204 263.273 119.051 240.473 126.116C217.673 133.181 195.633 122.203 188.962 100.614C182.291 79.0241 194.451 57.9693 217.11 50.9322H217.138ZM222.205 66.5545C219.425 67.4671 216.853 68.9215 214.638 70.8337C212.423 72.7458 210.609 75.0778 209.301 77.695C207.992 80.3121 207.215 83.1626 207.014 86.0817C206.813 89.0009 207.193 91.9309 208.131 94.7026C209.776 100.399 213.601 105.216 218.776 108.109C223.951 111.002 230.058 111.738 235.772 110.156C247.032 106.637 253.224 94.2522 249.396 81.8389C245.568 69.4256 233.577 62.8389 222.205 66.3574V66.5545ZM405.956 73.8448C416.878 78.5174 421.747 91.2685 416.652 103.232C411.558 115.194 398.863 120.683 387.941 116.011C382.54 113.512 378.348 108.977 376.28 103.397C374.213 97.8165 374.438 91.6446 376.907 86.23C377.982 83.4945 379.59 81.0002 381.639 78.8924C383.687 76.7846 386.134 75.1055 388.837 73.9528C391.541 72.8001 394.447 72.1969 397.386 72.1784C400.325 72.1599 403.238 72.7263 405.956 73.8448Z" fill="white"/>
<path fill-rule="evenodd" clip-rule="evenodd" d="M466.785 87.8616C468.188 89.4996 469.123 91.4867 469.49 93.6125C469.856 95.7382 469.641 97.9236 468.868 99.9372C463.029 100.56 457.5 102.879 452.964 106.608C450.87 108.255 448.981 110.144 447.334 112.238C451.574 103.977 453.157 94.6078 451.866 85.4127C454.256 84.0464 457.043 83.544 459.76 83.9899C462.477 84.4359 464.957 85.803 466.785 87.8616Z" fill="#C09952"/>
<path fill-rule="evenodd" clip-rule="evenodd" d="M144.122 428.877L160.702 446.048C165.43 450.983 167.748 455.674 167.654 460.122C167.502 462.558 166.863 464.939 165.775 467.124C164.688 469.31 163.173 471.255 161.321 472.845C159.67 474.638 157.676 476.08 155.456 477.086C153.237 478.092 150.837 478.641 148.401 478.699C143.897 478.699 139.253 476.166 134.524 471.268L125.179 461.585L111.583 474.702L104.349 467.215L144.122 428.821V428.877ZM153.58 449.876L145.727 441.769L130.864 456.378L138.69 464.485C140.662 466.965 143.536 468.564 146.684 468.932C149.506 468.786 152.156 467.531 154.059 465.442C155.134 464.541 156.019 463.434 156.661 462.187C157.304 460.941 157.692 459.578 157.802 458.179C157.559 455.018 156.071 452.082 153.664 450.017L153.58 449.876ZM180.518 465.892L153.13 513.885L162.165 519.036L172.946 500.12L182.967 505.75L184.036 531.421L193.663 537.051L191.946 509.888C195.363 511.097 199.109 510.985 202.447 509.573C205.785 508.162 208.476 505.553 209.989 502.259C211.235 500.336 212.06 498.169 212.41 495.904C212.759 493.638 212.625 491.324 212.016 489.114C210.749 484.92 207.174 481.12 201.235 477.855L180.518 466.033V465.892ZM195.493 483.372C202.079 487.125 203.853 491.666 200.813 496.996C197.773 502.316 192.959 503.076 186.401 499.332L176.605 493.702L185.697 477.771L195.493 483.4V483.372ZM231.888 524.609L226.99 541.498L255.139 549.661L252.971 557.12L214.859 546.058L230.227 492.971L268.34 504.033L266.173 511.52L238.024 503.357L233.971 517.431L258.826 524.637L256.715 531.956L231.86 524.722L231.888 524.609ZM277.629 561.736L276.756 506.482L288.016 506.285L305.974 537.248L322.863 505.862L333.953 505.665L334.854 560.92L324.439 561.089L323.792 520.528L309.521 546.734H302.427L287.34 521.006L287.987 561.568L277.573 561.736H277.629ZM362.439 554.756L350.026 500.908L360.159 498.572L372.601 552.419L362.439 554.756ZM387.407 524.243L372.629 496.433L381.833 491.563L396.611 519.345C399.426 524.637 402.475 527.902 405.759 529.141C407.531 529.725 409.409 529.915 411.262 529.696C413.115 529.477 414.897 528.855 416.484 527.874C418.172 527.116 419.67 525.993 420.872 524.587C422.075 523.18 422.95 521.525 423.436 519.739C424.281 516.334 423.267 511.971 420.453 506.651L405.675 478.868L414.879 473.999L429.657 501.781C433.654 509.297 434.696 515.855 432.838 521.288C430.51 527.248 425.959 532.072 420.143 534.742C414.665 538.08 408.105 539.16 401.847 537.754C396.217 536.272 391.404 531.768 387.407 524.243ZM462.675 508.171L470.247 501.021L442.38 471.522L470.894 480.304L476.045 475.462L468.896 446.498L496.79 476.082L504.334 468.932L466.39 428.765L458.312 436.393L466.982 471.043L432.894 460.403L424.759 468.116L462.675 508.171Z" fill="white"/>
<defs>
<linearGradient id="paint0_linear_2302_2" x1="304" y1="0" x2="304" y2="608" gradientUnits="userSpaceOnUse">
<stop stop-color="#00723C"/>
<stop offset="1" stop-color="#0C391D"/>
</linearGradient>
<radialGradient id="paint1_radial_2302_2" cx="0" cy="0" r="1" gradientUnits="userSpaceOnUse" gradientTransform="translate(304.299 304.329) rotate(72.92) scale(172.633)">
<stop stop-color="#FFFBF4"/>
<stop offset="1" stop-color="#F8EFDD"/>
</radialGradient>
</defs>
</svg>