<svg width="24" height="36" viewBox="0 0 24 36" fill="none" xmlns="http://www.w3.org/2000/svg">
<path d="M16.2034 14.9439C15.2974 11.3395 12.1623 8.64634 8.42107 8.56534C8.36241 8.55859 8.29723 8.55859 8.23857 8.55859C8.17991 8.55859 8.12125 8.55859 8.06259 8.56534C4.31482 8.64634 1.1667 11.3395 0.267232 14.9439C0.09125 15.6323 0 16.3546 0 17.0903V33.0062C0 34.1874 0.925536 35.1459 2.06616 35.1459C3.20679 35.1459 4.13232 34.1874 4.13232 33.0062V17.0903C4.13232 16.4018 4.28875 15.7606 4.57554 15.1869C4.61464 15.0991 4.65375 15.0249 4.69938 14.9439C5.40982 13.6952 6.72643 12.8447 8.23205 12.8447C9.73116 12.8447 11.0478 13.6952 11.7517 14.9439C11.7908 15.0249 11.8429 15.0991 11.8821 15.1869C12.1623 15.7606 12.3188 16.4018 12.3188 17.0903V26.513C12.3188 27.6942 13.2443 28.6594 14.3914 28.6594C15.5321 28.6594 16.4641 27.7009 16.4641 26.513V17.0903C16.4641 16.3546 16.3729 15.6323 16.2034 14.9439Z" fill="url(#paint0_linear_313_21978)"/>
<path d="M18.4519 15.3153V26.6279C18.4519 26.7427 18.4454 26.8574 18.4389 26.9722C18.4324 27.0397 18.4258 27.1072 18.4193 27.1747C18.3607 27.6539 18.2173 28.1061 18.0152 28.5246C17.9696 28.6124 17.924 28.6934 17.8783 28.7676C17.1744 30.0163 15.8643 30.86 14.3652 30.86C12.8596 30.86 11.543 30.0163 10.839 28.7676C10.7869 28.6934 10.7478 28.6124 10.7022 28.5246C10.4219 27.9509 10.2655 27.3097 10.2655 26.6279V17.2053C10.2655 16.0241 9.33994 15.0588 8.1928 15.0588C7.05217 15.0588 6.12012 16.0173 6.12012 17.2053V26.6279C6.12012 27.3637 6.21137 28.0791 6.38735 28.7676C7.30637 32.426 10.5327 35.1461 14.3587 35.1461C15.8317 35.1461 17.2135 34.7411 18.4128 34.0324C18.4193 34.0257 18.4258 34.0257 18.4324 34.0189C20.3356 32.8917 21.7499 31.0085 22.317 28.7676C22.493 28.0791 22.5842 27.3637 22.5842 26.6279V15.3153H18.4519Z" fill="url(#paint1_linear_313_21978)"/>
<path d="M4.13884 9.69946V35.1461H0V17.0904C0 16.3547 0.09125 15.6325 0.267232 14.944C0.827768 12.7099 2.24866 10.8267 4.13884 9.69946Z" fill="url(#paint2_linear_313_21978)"/>
<path d="M17.7546 2.9564V2.99014C17.7546 4.62359 19.0321 5.94654 20.6095 5.94654C22.1868 5.94654 23.4643 4.62359 23.4643 2.99014V2.9564C23.4643 1.32295 22.1868 0 20.6095 0C19.0321 0 17.7546 1.32295 17.7546 2.9564Z" fill="url(#paint3_linear_313_21978)"/>
<path d="M22.5908 8.55859V26.6277C22.5908 27.3634 22.4996 28.0789 22.3236 28.7674C21.7566 31.0083 20.3422 32.8915 18.439 34.0187V8.55859H22.5908Z" fill="url(#paint4_linear_313_21978)"/>
<defs>
<linearGradient id="paint0_linear_313_21978" x1="0.49262" y1="21.8553" x2="21.772" y2="21.8553" gradientUnits="userSpaceOnUse">
<stop stop-color="#0F172A"/>
<stop offset="0.1658" stop-color="#1A3344"/>
<stop offset="0.522" stop-color="#367B86"/>
<stop offset="0.7462" stop-color="#49ABB2"/>
</linearGradient>
<linearGradient id="paint1_linear_313_21978" x1="21.9154" y1="25.104" x2="0.612395" y2="25.104" gradientUnits="userSpaceOnUse">
<stop stop-color="#0F172A"/>
<stop offset="0.1636" stop-color="#1A3344"/>
<stop offset="0.5151" stop-color="#367B86"/>
<stop offset="0.7363" stop-color="#49ABB2"/>
</linearGradient>
<linearGradient id="paint2_linear_313_21978" x1="2.06942" y1="57.4977" x2="2.06942" y2="1.2867" gradientUnits="userSpaceOnUse">
<stop stop-color="#0F172A"/>
<stop offset="0.1491" stop-color="#1A3344"/>
<stop offset="0.4693" stop-color="#367B86"/>
<stop offset="0.6709" stop-color="#49ABB2"/>
</linearGradient>
<linearGradient id="paint3_linear_313_21978" x1="27.1724" y1="9.76758" x2="18.5197" y2="1.41216" gradientUnits="userSpaceOnUse">
<stop stop-color="#0F172A"/>
<stop offset="0.487" stop-color="#2C616E"/>
<stop offset="1" stop-color="#49ABB2"/>
</linearGradient>
<linearGradient id="paint4_linear_313_21978" x1="20.5149" y1="6.80757" x2="20.5149" y2="51.9494" gradientUnits="userSpaceOnUse">
<stop offset="0.1715" stop-color="#0F172A"/>
<stop offset="0.252" stop-color="#121F31"/>
<stop offset="0.3773" stop-color="#1B3546"/>
<stop offset="0.5317" stop-color="#295967"/>
<stop offset="0.7076" stop-color="#3C8B94"/>
<stop offset="0.8104" stop-color="#49ABB2"/>
</linearGradient>
</defs>
</svg>
