<svg id="Layer_1" data-name="Layer 1" xmlns="http://www.w3.org/2000/svg" viewBox="0 0 1920 540"><defs><style>.cls-1{fill:#1a1a1a;}</style></defs><path class="cls-1" d="M575.59,203.05q19.68,19.33,19.67,56.7V360.59H563.52v-97.2q0-25.45-12.23-38.35t-35-12.9q-25.78,0-40.67,15t-14.87,43.15v90.26H429V185.36h30.42v26.45a61.63,61.63,0,0,1,26-20.83q16.35-7.28,37.19-7.27Q555.92,183.71,575.59,203.05Z"/><path class="cls-1" d="M762.2,313.64l17.19,20.5a74,74,0,0,1-29.26,21.16q-17.68,7.27-39.51,7.28-27.76,0-49.26-11.41a81.25,81.25,0,0,1-33.22-31.91Q616.4,298.77,616.39,273q0-25.47,11.41-46a81.67,81.67,0,0,1,31.41-31.91q20-11.4,45.13-11.4a88.3,88.3,0,0,1,43.31,10.74,81.17,81.17,0,0,1,31.08,30.25q11.58,19.52,11.9,45L651.44,296.78a54,54,0,0,0,22.32,28.1q15.71,9.93,37.85,9.92Q743,334.8,762.2,313.64Zm-87.45-95.55a52.58,52.58,0,0,0-20.33,21.33q-7.27,13.72-7.27,31.9v3.31l112.07-21.16A53.52,53.52,0,0,0,740,222.39q-14.88-11.91-35.7-11.9A57.71,57.71,0,0,0,674.75,218.09Z"/><path class="cls-1" d="M949,360.59l-50.58-67.12-51.25,67.12H811.76L880.85,271l-65.79-85.63h35.38l48.27,63.15,47.94-63.15h34.72L915.24,271,985,360.59Z"/><path class="cls-1" d="M1100,350.34a47.4,47.4,0,0,1-17.2,9.09,71.58,71.58,0,0,1-21.16,3.15q-26.45,0-41-14.22t-14.55-40.67V147h31.74v38.35h50.26v26.12h-50.26v94.89q0,14.22,7.1,21.82t20.35,7.6q14.54,0,24.79-8.26Z"/><path class="cls-1" d="M1135,348.52q-13.89-14-13.89-39.51V115.27h31.74v191.1q0,14.22,6.77,21.82t20.35,7.6a37.2,37.2,0,0,0,15.53-3.3l1.66,26.12a66.38,66.38,0,0,1-22.81,4Q1148.91,362.58,1135,348.52Z"/><path class="cls-1" d="M1262.63,351a83.9,83.9,0,0,1-32.56-31.9q-11.74-20.34-11.74-46.12t11.74-46.13a82.83,82.83,0,0,1,32.56-31.74q20.82-11.4,46.95-11.4t46.78,11.4a83.14,83.14,0,0,1,32.4,31.74q11.73,20.34,11.74,46.13t-11.74,46.12a84.23,84.23,0,0,1-32.4,31.9q-20.67,11.58-46.78,11.58T1262.63,351Zm77.2-24a54.73,54.73,0,0,0,21-21.82q7.62-14,7.61-32.23t-7.61-32.24a53.74,53.74,0,0,0-21-21.66,64,64,0,0,0-60.5,0,54.86,54.86,0,0,0-21.16,21.66q-7.79,14.06-7.77,32.24t7.77,32.23A55.88,55.88,0,0,0,1279.33,327a62.77,62.77,0,0,0,60.5,0Z"/><path class="cls-1" d="M1465.93,351a83.9,83.9,0,0,1-32.56-31.9q-11.74-20.34-11.75-46.12t11.75-46.13a82.83,82.83,0,0,1,32.56-31.74q20.82-11.4,47-11.4t46.78,11.4a83.14,83.14,0,0,1,32.4,31.74q11.73,20.34,11.74,46.13t-11.74,46.12a84.23,84.23,0,0,1-32.4,31.9q-20.67,11.58-46.78,11.58T1465.93,351Zm77.2-24a54.73,54.73,0,0,0,21-21.82q7.62-14,7.61-32.23t-7.61-32.24a53.74,53.74,0,0,0-21-21.66,64,64,0,0,0-60.5,0,54.86,54.86,0,0,0-21.16,21.66q-7.79,14.06-7.77,32.24t7.77,32.23A55.88,55.88,0,0,0,1482.63,327a62.77,62.77,0,0,0,60.5,0Z"/><path class="cls-1" d="M1763.46,195A80.92,80.92,0,0,1,1795,226.36q11.42,20.16,11.41,46.62T1795,319.76a80.61,80.61,0,0,1-31.57,31.57q-20.18,11.25-45.63,11.25a81.29,81.29,0,0,1-34.56-7.28,71.75,71.75,0,0,1-26.6-21.16v90.59h-31.75V185.36h30.42v27.77a67.42,67.42,0,0,1,26.78-22,84.5,84.5,0,0,1,35.71-7.44Q1743.29,183.71,1763.46,195Zm-18,132.08a56,56,0,0,0,21.16-21.82q7.76-14,7.76-32.23t-7.76-32.24a54.93,54.93,0,0,0-21.16-21.66,60.27,60.27,0,0,0-30.25-7.6,58.54,58.54,0,0,0-29.93,7.77,56.27,56.27,0,0,0-21.16,21.66q-7.77,13.88-7.77,32.07t7.61,32.23A54.42,54.42,0,0,0,1685.1,327a62.46,62.46,0,0,0,60.34,0Z"/><path class="cls-1" d="M385,270v56.86c0,19.13-14.58,34.66-32.54,34.66h-8V270Z"/><path class="cls-1" d="M323.8,270v91.64H229.75l1.81-6.67c12.84-34-13.9-62.33-34.39-45.42a137.7,137.7,0,0,0-10.24,11.6c-14.54,18.45-34.35,32.31-57.14,38.11a66,66,0,0,1-16.23,2.38V259.72c0-56.5,27-116.12,82.94-116.12h47.87a66.19,66.19,0,0,0-20.19,47.61A78.89,78.89,0,0,0,303,270Z"/><path class="cls-1" d="M293.59,143.6h-3A47.61,47.61,0,0,0,243,191.21a60,60,0,0,0,60,60h82C385,191.77,353,143.6,293.59,143.6ZM338,212.28c-13.94-.06-13.77-23.14.05-23.1C352.49,188.52,353.8,212.47,338,212.28Z"/><path class="cls-1" d="M423.53,251.17A18.86,18.86,0,0,1,404.66,270H385V251.17Z"/></svg>