<svg width="1527" height="1527" viewBox="0 0 1527 1527" fill="none" xmlns="http://www.w3.org/2000/svg">
<g clip-path="url(#clip0_9_2)">
<path d="M594.75 724.888C571.641 743.07 550.996 763.364 526.831 777.44C396.153 853.571 226.414 767.235 208.231 616.968C201.897 564.767 213.158 515.147 225.827 465.293C242.836 398.429 259.494 331.448 276.034 264.467C290.931 204.056 340.903 163.937 403.074 163.937C642.61 163.82 882.147 163.703 1121.68 163.82C1183.97 163.82 1233 201.123 1248.84 262.239C1270.89 347.519 1292.71 433.034 1312.3 518.901C1328.73 591.044 1320.16 659.667 1273.83 720.665C1191.01 829.876 1030.89 834.568 942.324 730.167C939.508 726.765 936.576 723.48 932.705 719.023C889.771 775.446 833.582 805.828 763.082 805.711C692.934 805.711 636.393 776.502 594.75 724.888Z" fill="url(#paint0_linear_9_2)"/>
<path d="M250.226 844.774C282.72 858.264 313.454 875.273 346.534 883.953C428.764 905.42 507.241 892.165 580.087 848.175C588.298 843.249 594.046 842.545 602.844 847.589C710.061 909.878 817.277 910.581 923.907 846.181C930.241 842.31 934.464 841.254 941.737 845.477C1050.13 910.112 1158.63 911.872 1267.02 844.891C1269.13 843.6 1271.48 842.545 1274.88 840.785C1275.23 846.064 1275.59 849.818 1275.59 853.689C1275.59 978.618 1275.7 1103.55 1275.59 1228.36C1275.47 1292.88 1236.88 1343.08 1176.46 1357.51C1165.67 1360.09 1154.53 1361.62 1143.38 1361.62C1078.75 1361.97 1014 1361.62 949.362 1362.09C938.101 1362.2 934.934 1358.69 935.051 1347.66C935.52 1280.33 935.285 1212.99 935.168 1145.54C935.051 1097.92 899.038 1062.14 851.295 1062.02C791.939 1062.02 732.583 1061.9 673.344 1062.02C626.54 1062.14 590.41 1098.27 590.293 1144.96C590.175 1212.29 590.058 1279.62 590.41 1347.07C590.41 1357.39 588.65 1362.2 576.685 1362.09C512.05 1361.5 447.298 1362.09 382.663 1361.74C318.732 1361.38 268.761 1322.91 254.332 1263.2C251.751 1252.52 250.109 1241.26 250.109 1230.24C249.875 1103.55 249.875 976.859 249.992 850.17C249.875 847.589 250.109 845.008 250.226 844.774Z" fill="#E9813C"/>
</g>
<defs>
<linearGradient id="paint0_linear_9_2" x1="763" y1="106.772" x2="763" y2="1695.27" gradientUnits="userSpaceOnUse">
<stop offset="1" stop-color="#E9813C"/>
</linearGradient>
<clipPath id="clip0_9_2">
<rect width="1526.1" height="1526.1" fill="white"/>
</clipPath>
</defs>
</svg>
